<svg width="100" height="48" viewBox="0 0 100 48" fill="none" xmlns="http://www.w3.org/2000/svg">
<g clip-path="url(#clip0_918_2)">
<path d="M63.2498 21.14C62.5592 21.14 61.9198 21.0187 61.3318 20.776C60.7438 20.524 60.2352 20.174 59.8058 19.726C59.3765 19.2687 59.0405 18.7367 58.7978 18.13C58.5645 17.514 58.4478 16.842 58.4478 16.114C58.4478 15.3953 58.5645 14.7327 58.7978 14.126C59.0405 13.51 59.3765 12.978 59.8058 12.53C60.2352 12.0727 60.7438 11.718 61.3318 11.466C61.9198 11.214 62.5592 11.088 63.2498 11.088C63.9405 11.088 64.5798 11.214 65.1678 11.466C65.7558 11.718 66.2645 12.0727 66.6938 12.53C67.1325 12.978 67.4685 13.51 67.7018 14.126C67.9445 14.7327 68.0658 15.3953 68.0658 16.114C68.0658 16.842 67.9445 17.514 67.7018 18.13C67.4685 18.7367 67.1325 19.2687 66.6938 19.726C66.2645 20.174 65.7558 20.524 65.1678 20.776C64.5798 21.0187 63.9405 21.14 63.2498 21.14ZM63.2498 20.048C63.9592 20.048 64.5892 19.88 65.1398 19.544C65.6905 19.208 66.1245 18.746 66.4418 18.158C66.7592 17.5607 66.9178 16.8793 66.9178 16.114C66.9178 15.358 66.7592 14.686 66.4418 14.098C66.1245 13.5007 65.6905 13.034 65.1398 12.698C64.5892 12.3527 63.9592 12.18 63.2498 12.18C62.5405 12.18 61.9105 12.3527 61.3598 12.698C60.8092 13.034 60.3752 13.5007 60.0578 14.098C59.7498 14.686 59.5958 15.358 59.5958 16.114C59.5958 16.8793 59.7498 17.5607 60.0578 18.158C60.3752 18.746 60.8092 19.208 61.3598 19.544C61.9105 19.88 62.5405 20.048 63.2498 20.048ZM69.356 21V13.678H70.406L70.434 14.924C70.658 14.532 71.0034 14.2007 71.47 13.93C71.946 13.6593 72.4454 13.524 72.968 13.524C73.78 13.524 74.3914 13.776 74.802 14.28C75.222 14.7747 75.432 15.5307 75.432 16.548V21H74.354V16.618C74.354 15.19 73.78 14.49 72.632 14.518C72.2027 14.518 71.82 14.6113 71.484 14.798C71.1574 14.9847 70.896 15.232 70.7 15.54C70.5134 15.848 70.42 16.184 70.42 16.548V21H69.356ZM77.0441 21V10.64H78.1081V21H77.0441ZM80.7812 24.22L82.0272 21.196L78.6252 13.678H79.8292L82.3352 19.278C82.3726 19.362 82.4099 19.4553 82.4472 19.558C82.4846 19.6513 82.5219 19.7493 82.5592 19.852C82.5872 19.7773 82.6152 19.7027 82.6432 19.628C82.6806 19.544 82.7132 19.46 82.7412 19.376L84.9252 13.678H86.1432L83.1892 21L81.9292 24.22H80.7812ZM60.5915 36V26.2H61.6975V34.922H66.4015V36H60.5915ZM68.3806 27.11C68.1192 27.11 67.9186 27.0447 67.7786 26.914C67.6386 26.774 67.5686 26.5827 67.5686 26.34C67.5686 26.1067 67.6386 25.92 67.7786 25.78C67.9186 25.64 68.1192 25.57 68.3806 25.57C68.6326 25.57 68.8286 25.64 68.9686 25.78C69.1086 25.9107 69.1786 26.0973 69.1786 26.34C69.1786 26.5733 69.1086 26.76 68.9686 26.9C68.8286 27.04 68.6326 27.11 68.3806 27.11ZM67.8486 36V28.678H68.9266V36H67.8486ZM70.6382 36V28.678H71.6882L71.7162 29.924C71.9402 29.532 72.2855 29.2007 72.7522 28.93C73.2282 28.6593 73.7275 28.524 74.2502 28.524C75.0622 28.524 75.6735 28.776 76.0842 29.28C76.5042 29.7747 76.7142 30.5307 76.7142 31.548V36H75.6362V31.618C75.6362 30.19 75.0622 29.49 73.9142 29.518C73.4848 29.518 73.1022 29.6113 72.7662 29.798C72.4395 29.9847 72.1782 30.232 71.9822 30.54C71.7955 30.848 71.7022 31.184 71.7022 31.548V36H70.6382ZM78.3262 36V25.64H79.3902V32.276L83.0442 28.678H84.4862L81.1542 31.856L84.7242 36H83.3382L80.3982 32.584L79.3902 33.536V36H78.3262Z" fill="white"/>
<path d="M87 24L57 24" stroke="white" stroke-width="2"/>
<path d="M28.9386 39.24C26.8319 39.24 24.9519 38.7733 23.2986 37.84C21.6453 36.88 20.3386 35.5733 19.3786 33.92C18.4453 32.2667 17.9786 30.3733 17.9786 28.24V10.96H21.1386V27.88C21.1386 29.48 21.4853 30.9067 22.1786 32.16C22.8719 33.3867 23.8053 34.36 24.9786 35.08C26.1519 35.8 27.4719 36.16 28.9386 36.16C30.4586 36.16 31.8186 35.8 33.0186 35.08C34.2453 34.36 35.2053 33.3867 35.8986 32.16C36.6186 30.9067 36.9786 29.48 36.9786 27.88V10.96H40.0186V28.24C40.0186 30.3733 39.5386 32.2667 38.5786 33.92C37.6186 35.5733 36.2986 36.88 34.6186 37.84C32.9653 38.7733 31.0719 39.24 28.9386 39.24Z" fill="white"/>
<line x1="6" y1="23" x2="51" y2="23" stroke="white" stroke-width="2"/>
<circle cx="29" cy="24" r="18.5" stroke="white" stroke-width="3"/>
</g>
<defs>
<clipPath id="clip0_918_2">
<rect width="100" height="48" fill="white"/>
</clipPath>
</defs>
</svg>
